<?xml version="1.0" encoding="UTF-8"?>
<svg width="24px" height="24px" viewBox="0 0 24 24" version="1.1" xmlns="http://www.w3.org/2000/svg" xmlns:xlink="http://www.w3.org/1999/xlink">
    <!-- Generator: Sketch 54.1 (76490) - https://sketchapp.com -->
    <title>icon/Language</title>
    <desc>Created with Sketch.</desc>
    <g id="Page-1" stroke="none" stroke-width="1" fill="none" fill-rule="evenodd">
        <g id="Home" transform="translate(-1536.000000, -23.000000)" fill="#000000" fill-rule="nonzero">
            <g id="Group-13">
                <g id="icon/Language" transform="translate(1536.000000, 23.000000)">
                    <path d="M2.04268045,15.3409091 L6.35668027,15.3409091 C6.21257257,14.2785952 6.13636364,13.1572326 6.13636364,12 C6.13636364,10.8427674 6.21257257,9.72140478 6.35668027,8.65909091 L2.04268045,8.65909091 C1.69070664,9.70855904 1.5,10.8320086 1.5,12 C1.5,13.1679914 1.69070664,14.291441 2.04268045,15.3409091 L2.04268045,15.3409091 Z M2.68007014,16.8409091 C3.92703333,19.2367246 6.07070061,21.0912848 8.66617508,21.9596926 C7.75513101,20.6970169 7.04579132,18.9211323 6.6130418,16.8409091 L2.68007014,16.8409091 L2.68007014,16.8409091 Z M21.9573196,15.3409091 C22.3092934,14.291441 22.5,13.1679914 22.5,12 C22.5,10.8320086 22.3092934,9.70855904 21.9573196,8.65909091 L17.6433197,8.65909091 C17.7874274,9.72140478 17.8636364,10.8427674 17.8636364,12 C17.8636364,13.1572326 17.7874274,14.2785952 17.6433197,15.3409091 L21.9573196,15.3409091 L21.9573196,15.3409091 Z M21.3199299,16.8409091 L17.3869582,16.8409091 C16.9542087,18.9211323 16.244869,20.6970169 15.3338249,21.9596926 C17.9292994,21.0912848 20.0729667,19.2367246 21.3199299,16.8409091 L21.3199299,16.8409091 Z M7.87489031,15.3409091 L16.1251097,15.3409091 C16.2788231,14.2936383 16.3636364,13.170741 16.3636364,12 C16.3636364,10.829259 16.2788231,9.70636166 16.1251097,8.65909091 L7.87489031,8.65909091 C7.72117695,9.70636166 7.63636364,10.829259 7.63636364,12 C7.63636364,13.170741 7.72117695,14.2936383 7.87489031,15.3409091 Z M8.15271933,16.8409091 C8.91584714,20.2173801 10.4252379,22.5 12,22.5 C13.5747621,22.5 15.0841529,20.2173801 15.8472785,16.8409091 L8.15271933,16.8409091 L8.15271933,16.8409091 Z M2.68007014,7.15909091 L6.6130418,7.15909091 C7.04579132,5.07886772 7.75513101,3.30298306 8.66617508,2.04030736 C6.07070061,2.90871524 3.92703333,4.76327538 2.68007014,7.15909091 L2.68007014,7.15909091 Z M21.3199299,7.15909091 C20.0729667,4.76327538 17.9292994,2.90871524 15.3338249,2.04030736 C16.244869,3.30298306 16.9542087,5.07886772 17.3869582,7.15909091 L21.3199299,7.15909091 L21.3199299,7.15909091 Z M8.15271933,7.15909091 L15.8472807,7.15909091 C15.0841529,3.78261989 13.5747621,1.5 12,1.5 C10.4252379,1.5 8.91584714,3.78261989 8.15271933,7.15909091 L8.15271933,7.15909091 Z M12,24 C5.372583,24 0,18.627417 0,12 C0,5.372583 5.372583,0 12,0 C18.627417,0 24,5.372583 24,12 C24,18.627417 18.627417,24 12,24 Z" id="Shape"></path>
                </g>
            </g>
        </g>
    </g>
</svg>